# xmcd
#
# Track frame offsets:
#	150
#	11085
#	17762
#	35030
#	47547
#	64342
#	77462
#	88397
#	97930
#	108635
#	119880
#	131455
#	142077
#	153370
#	166970
#	184967
#	195612
#	205172
#	215790
#	228770
#
# Disc length: 3168
#
# Revision: 3
# Processed by: cddbd v1.5.1PL0 Copyright (c) Steve Scherf et al.
# Submitted via: EasyCDDAExtractor 5.1.0
# Normalized: r2:DSETVAR1
#
DISCID=210c5e14
DTITLE=Various Artist - Mega Country CD1
DYEAR=2003
DGENRE=Country
TTITLE0=Roger Miller - King of the road
TTITLE1=Waylon Jennings - It's so easy
TTITLE2=Al Hirt and Ace Cannon - Always on my mind
TTITLE3=Faron Young - It's four in the morning
TTITLE4=Lynn Anderson - Blue bayou
TTITLE5=Conway Twitty - Danny boy
TTITLE6=Carl Smith - Hey Joe
TTITLE7=Dave Duddley - Six days on the road
TTITLE8=Ferlin Husky - Gone
TTITLE9=Kitty Welss - It wasn't god who made honky tonk angels
TTITLE10=Charlie Walker - Pick me up on your way down
TTITLE11=Connie Smith - Ain't had no lovin'
TTITLE12=Donna Fargo - Superman
TTITLE13=Freddy Fender - Wasted days and wasted nights
TTITLE14=Johnny Bush - You gave me a mountain
TTITLE15=Kenny Rogers - She even woke me up to say goodbye
TTITLE16=Merle Travis - Sixteen tons
TTITLE17=Patsy Cline - Honky tonk merry go round
TTITLE18=Ray Price - City lights
TTITLE19=Willie Nelson - Waiting time
EXTD=
EXTT0=
EXTT1=
EXTT2=
EXTT3=
EXTT4=
EXTT5=
EXTT6=
EXTT7=
EXTT8=
EXTT9=
EXTT10=
EXTT11=
EXTT12=
EXTT13=
EXTT14=
EXTT15=
EXTT16=
EXTT17=
EXTT18=
EXTT19=
PLAYORDER=
